{
  "accessors": [
    {
      "bufferView": 2,
      "componentType": 5126,
      "count": 12912,
      "max": [
        0.6181154251098633,
        1.6607990264892578,
        2.3297042846679688
      ],
      "min": [
        -0.6024312973022461,
        -0.01761820912361145,
        -3.6117172241210938
      ],
      "type": "VEC3"
    },
    {
      "bufferView": 2,
      "byteOffset": 154944,
      "componentType": 5126,
      "count": 12912,
      "max": [
        0.9999715685844421,
        0.9999996423721313,
        0.9999261498451233
      ],
      "min": [
        -0.9999977350234985,
        -0.9999945163726807,
        -0.9997852444648743
      ],
      "type": "VEC3"
    },
    {
      "bufferView": 3,
      "componentType": 5126,
      "count": 12912,
      "max": [
        1.0,
        0.9994111657142639,
        0.9992575645446777,
        1.0
      ],
      "min": [
        -0.9984531402587891,
        -0.9994367957115173,
        -0.9995149970054626,
        -1.0
      ],
      "type": "VEC4"
    },
    {
      "bufferView": 1,
      "componentType": 5126,
      "count": 12912,
      "max": [
        0.9867839813232422,
        0.9894533157348633
      ],
      "min": [
        0.01823035255074501,
        0.009674608707427979
      ],
      "type": "VEC2"
    },
    {
      "bufferView": 1,
      "byteOffset": 103296,
      "componentType": 5126,
      "count": 12912,
      "max": [
        0.9867839813232422,
        0.9894533157348633
      ],
      "min": [
        0.01823035255074501,
        0.009674608707427979
      ],
      "type": "VEC2"
    },
    {
      "bufferView": 1,
      "byteOffset": 206592,
      "componentType": 5126,
      "count": 12912,
      "max": [
        0.9867839813232422,
        0.9894533157348633
      ],
      "min": [
        0.01823035255074501,
        0.009674608707427979
      ],
      "type": "VEC2"
    },
    {
      "bufferView": 1,
      "byteOffset": 309888,
      "componentType": 5126,
      "count": 12912,
      "max": [
        0.9867839813232422,
        0.9894533157348633
      ],
      "min": [
        0.01823035255074501,
        0.009674608707427979
      ],
      "type": "VEC2"
    },
    {
      "bufferView": 1,
      "byteOffset": 413184,
      "componentType": 5126,
      "count": 12912,
      "max": [
        0.9867839813232422,
        0.9894533157348633
      ],
      "min": [
        0.01823035255074501,
        0.009674608707427979
      ],
      "type": "VEC2"
    },
    {
      "bufferView": 0,
      "componentType": 5125,
      "count": 71520,
      "type": "SCALAR"
    }
  ],
  "asset": {
    "extras": {
      "author": "Al-Deezel (https://sketchfab.com/Al-dezel)",
      "license": "CC-BY-4.0 (http://creativecommons.org/licenses/by/4.0/)",
      "source": "https://sketchfab.com/3d-models/high-detailed-fish-b3ba263918114af183d5f4f859164a1d",
      "title": "High detailed Fish"
    },
    "generator": "Sketchfab-15.20.0",
    "version": "2.0"
  },
  "bufferViews": [
    {
      "buffer": 0,
      "byteLength": 286080,
      "name": "floatBufferViews",
      "target": 34963
    },
    {
      "buffer": 0,
      "byteLength": 516480,
      "byteOffset": 286080,
      "byteStride": 8,
      "name": "floatBufferViews",
      "target": 34962
    },
    {
      "buffer": 0,
      "byteLength": 309888,
      "byteOffset": 802560,
      "byteStride": 12,
      "name": "floatBufferViews",
      "target": 34962
    },
    {
      "buffer": 0,
      "byteLength": 206592,
      "byteOffset": 1112448,
      "byteStride": 16,
      "name": "floatBufferViews",
      "target": 34962
    }
  ],
  "buffers": [
    {
      "byteLength": 1319040,
      "uri": "scene.bin"
    }
  ],
  "extensionsRequired": [
    "KHR_materials_pbrSpecularGlossiness"
  ],
  "extensionsUsed": [
    "KHR_materials_pbrSpecularGlossiness"
  ],
  "images": [
    {
      "uri": "textures/material_0_diffuse.png"
    },
    {
      "uri": "textures/material_0_specularGlossiness.png"
    },
    {
      "uri": "textures/material_0_normal.png"
    },
    {
      "uri": "textures/material_0_occlusion.png"
    }
  ],
  "materials": [
    {
      "doubleSided": true,
      "extensions": {
        "KHR_materials_pbrSpecularGlossiness": {
          "diffuseFactor": [
            1.0,
            1.0,
            1.0,
            1.0
          ],
          "diffuseTexture": {
            "index": 0
          },
          "glossinessFactor": 1.0,
          "specularFactor": [
            1.0,
            1.0,
            1.0
          ],
          "specularGlossinessTexture": {
            "index": 1
          }
        }
      },
      "name": "material_0",
      "normalTexture": {
        "index": 2
      },
      "occlusionTexture": {
        "index": 3
      }
    }
  ],
  "meshes": [
    {
      "name": "Object_0",
      "primitives": [
        {
          "attributes": {
            "NORMAL": 1,
            "POSITION": 0,
            "TANGENT": 2,
            "TEXCOORD_0": 3,
            "TEXCOORD_1": 4,
            "TEXCOORD_2": 5,
            "TEXCOORD_3": 6,
            "TEXCOORD_4": 7
          },
          "indices": 8,
          "material": 0,
          "mode": 4
        }
      ]
    }
  ],
  "nodes": [
    {
      "children": [
        1
      ],
      "matrix": [
        1.0,
        0.0,
        0.0,
        0.0,
        0.0,
        2.220446049250313e-16,
        -1.0,
        0.0,
        0.0,
        1.0,
        2.220446049250313e-16,
        0.0,
        0.0,
        0.0,
        0.0,
        1.0
      ],
      "name": "Sketchfab_model"
    },
    {
      "children": [
        2
      ],
      "name": "root"
    },
    {
      "children": [
        3
      ],
      "matrix": [
        1.0,
        0.0,
        0.0,
        0.0,
        0.0,
        2.220446049250313e-16,
        1.0,
        0.0,
        0.0,
        -1.0,
        2.220446049250313e-16,
        0.0,
        0.0,
        0.0,
        0.0,
        1.0
      ],
      "name": "GLTF_SceneRootNode"
    },
    {
      "children": [
        4
      ],
      "matrix": [
        0.009999999776482582,
        0.0,
        0.0,
        0.0,
        0.0,
        0.009999999776482582,
        0.0,
        0.0,
        0.0,
        0.0,
        0.009999999776482582,
        0.0,
        0.0,
        0.0,
        0.0,
        1.0
      ],
      "name": "RootNode.0_0"
    },
    {
      "children": [
        5
      ],
      "name": "fish.1_1"
    },
    {
      "mesh": 0,
      "name": "Object_5"
    }
  ],
  "samplers": [
    {
      "magFilter": 9729,
      "minFilter": 9987,
      "wrapS": 10497,
      "wrapT": 10497
    }
  ],
  "scene": 0,
  "scenes": [
    {
      "name": "Sketchfab_Scene",
      "nodes": [
        0
      ]
    }
  ],
  "textures": [
    {
      "sampler": 0,
      "source": 0
    },
    {
      "sampler": 0,
      "source": 1
    },
    {
      "sampler": 0,
      "source": 2
    },
    {
      "sampler": 0,
      "source": 3
    }
  ]
}
