{
  "accessors": [
    {
      "bufferView": 2,
      "componentType": 5126,
      "count": 65532,
      "max": [
        0.02033483050763607,
        0.0029826799873262644,
        0.013863939791917801
      ],
      "min": [
        -0.021985189989209175,
        -0.17612208425998688,
        -0.00936548039317131
      ],
      "type": "VEC3"
    },
    {
      "bufferView": 2,
      "byteOffset": 786384,
      "componentType": 5126,
      "count": 65532,
      "max": [
        0.9999960660934448,
        0.9979971051216125,
        0.9999935626983643
      ],
      "min": [
        -0.9999980330467224,
        -0.999997615814209,
        -0.9999982714653015
      ],
      "type": "VEC3"
    },
    {
      "bufferView": 3,
      "componentType": 5126,
      "count": 65532,
      "max": [
        1.0,
        1.0,
        0.9990940690040588,
        1.0
      ],
      "min": [
        -1.0,
        -1.0,
        -0.9929490685462952,
        -1.0
      ],
      "type": "VEC4"
    },
    {
      "bufferView": 1,
      "componentType": 5126,
      "count": 65532,
      "max": [
        0.9993287324905396,
        0.9929198026657104
      ],
      "min": [
        0.000244140625,
        0.00024988187942653894
      ],
      "type": "VEC2"
    },
    {
      "bufferView": 0,
      "componentType": 5125,
      "count": 343830,
      "type": "SCALAR"
    },
    {
      "bufferView": 2,
      "byteOffset": 1572768,
      "componentType": 5126,
      "count": 42204,
      "max": [
        0.020185349509119987,
        0.0029826799873262644,
        0.013863939791917801
      ],
      "min": [
        -0.02171001024544239,
        -0.17612208425998688,
        -0.009387990459799767
      ],
      "type": "VEC3"
    },
    {
      "bufferView": 2,
      "byteOffset": 2079216,
      "componentType": 5126,
      "count": 42204,
      "max": [
        0.9999662637710571,
        0.9877831935882568,
        0.9999935626983643
      ],
      "min": [
        -0.9999637007713318,
        -0.999997615814209,
        -0.9999982714653015
      ],
      "type": "VEC3"
    },
    {
      "bufferView": 3,
      "byteOffset": 1048512,
      "componentType": 5126,
      "count": 42204,
      "max": [
        1.0,
        1.0,
        0.9941999316215515,
        1.0
      ],
      "min": [
        -1.0,
        -1.0,
        -0.990513026714325,
        -1.0
      ],
      "type": "VEC4"
    },
    {
      "bufferView": 1,
      "byteOffset": 524256,
      "componentType": 5126,
      "count": 42204,
      "max": [
        0.9997469782829285,
        0.9978026151657104
      ],
      "min": [
        0.000244140625,
        0.00026061071548610926
      ],
      "type": "VEC2"
    },
    {
      "bufferView": 0,
      "byteOffset": 1375320,
      "componentType": 5125,
      "count": 193188,
      "type": "SCALAR"
    }
  ],
  "asset": {
    "extras": {
      "author": "Global Digital Heritage (https://sketchfab.com/GlobalDigitalHeritage)",
      "license": "CC-BY-4.0 (http://creativecommons.org/licenses/by/4.0/)",
      "source": "https://sketchfab.com/3d-models/bronze-spearhead-c55f7d93414d49008674e29827f93417",
      "title": "Bronze spearhead"
    },
    "generator": "Sketchfab-15.19.0",
    "version": "2.0"
  },
  "bufferViews": [
    {
      "buffer": 0,
      "byteLength": 2148072,
      "name": "floatBufferViews",
      "target": 34963
    },
    {
      "buffer": 0,
      "byteLength": 861888,
      "byteOffset": 2148072,
      "byteStride": 8,
      "name": "floatBufferViews",
      "target": 34962
    },
    {
      "buffer": 0,
      "byteLength": 2585664,
      "byteOffset": 3009960,
      "byteStride": 12,
      "name": "floatBufferViews",
      "target": 34962
    },
    {
      "buffer": 0,
      "byteLength": 1723776,
      "byteOffset": 5595624,
      "byteStride": 16,
      "name": "floatBufferViews",
      "target": 34962
    }
  ],
  "buffers": [
    {
      "byteLength": 7319400,
      "uri": "scene.bin"
    }
  ],
  "images": [
    {
      "uri": "textures/MUE_1831_Model_6_u1_v1_baseColor.jpeg"
    },
    {
      "uri": "textures/MUE_1831_Model_6_u1_v1_normal.jpeg"
    }
  ],
  "materials": [
    {
      "doubleSided": true,
      "name": "MUE_1831_Model_6_u1_v1",
      "normalTexture": {
        "index": 1
      },
      "pbrMetallicRoughness": {
        "baseColorTexture": {
          "index": 0
        },
        "metallicFactor": 0.0,
        "roughnessFactor": 0.4902567581769298
      }
    }
  ],
  "meshes": [
    {
      "name": "Object_0",
      "primitives": [
        {
          "attributes": {
            "NORMAL": 1,
            "POSITION": 0,
            "TANGENT": 2,
            "TEXCOORD_0": 3
          },
          "indices": 4,
          "material": 0,
          "mode": 4
        }
      ]
    },
    {
      "name": "Object_1",
      "primitives": [
        {
          "attributes": {
            "NORMAL": 6,
            "POSITION": 5,
            "TANGENT": 7,
            "TEXCOORD_0": 8
          },
          "indices": 9,
          "material": 0,
          "mode": 4
        }
      ]
    }
  ],
  "nodes": [
    {
      "children": [
        1
      ],
      "matrix": [
        -0.011669793166220188,
        -0.9999316930770874,
        -0.000678769254591538,
        0.0,
        0.05806649476289749,
        2.008532699528272e-16,
        -0.9983127117156982,
        0.0,
        0.9982445240020752,
        -0.011689516715705407,
        0.05806252732872963,
        0.0,
        0.0,
        0.0,
        0.0,
        1.0
      ],
      "name": "Sketchfab_model"
    },
    {
      "children": [
        2,
        3
      ],
      "name": "MUE_1831_Model_6.obj.cleaner.materialmerger.gles"
    },
    {
      "mesh": 0,
      "name": "Object_2"
    },
    {
      "mesh": 1,
      "name": "Object_3"
    }
  ],
  "samplers": [
    {
      "magFilter": 9729,
      "minFilter": 9987,
      "wrapS": 10497,
      "wrapT": 10497
    }
  ],
  "scene": 0,
  "scenes": [
    {
      "name": "Sketchfab_Scene",
      "nodes": [
        0
      ]
    }
  ],
  "textures": [
    {
      "sampler": 0,
      "source": 0
    },
    {
      "sampler": 0,
      "source": 1
    }
  ]
}
